<?xml version="1.0" standalone="no"?>
<!DOCTYPE svg PUBLIC "-//W3C//DTD SVG 20010904//EN"
 "http://www.w3.org/TR/2001/REC-SVG-20010904/DTD/svg10.dtd">
<svg version="1.0" xmlns="http://www.w3.org/2000/svg"
 width="1000.000000pt" height="1000.000000pt" viewBox="0 0 1000.000000 1000.000000"
 preserveAspectRatio="xMidYMid meet">
<metadata>
Created by potrace 1.14, written by Peter Selinger 2001-2017
</metadata>
<g transform="translate(0.000000,1000.000000) scale(0.100000,-0.100000)"
fill="#000000" stroke="none">
<path d="M4700 9990 c-1236 -80 -2373 -592 -3240 -1460 -523 -524 -914 -1138
-1163 -1830 -75 -210 -141 -438 -172 -600 -9 -47 -20 -98 -26 -115 -12 -42
-47 -266 -64 -420 -25 -223 -38 -630 -26 -803 6 -85 11 -160 11 -167 0 -11 5
-11 27 0 16 7 55 25 88 40 33 16 68 35 78 43 14 12 22 13 42 4 20 -9 25 -19
25 -46 0 -42 -11 -51 -89 -76 -72 -23 -122 -50 -115 -62 3 -5 -5 -18 -18 -29
-23 -20 -24 -25 -16 -93 34 -302 109 -629 224 -974 385 -1160 1197 -2145 2276
-2758 674 -384 1535 -626 2252 -633 77 -1 143 -4 147 -7 4 -2 120 0 256 5 249
10 409 26 623 61 1329 219 2514 968 3290 2080 737 1057 1033 2379 820 3670
-235 1426 -1080 2683 -2315 3443 -152 94 -488 268 -642 333 -501 212 -983 332
-1538 384 -155 15 -574 20 -735 10z m958 -1011 c129 -34 423 -142 547 -200 51
-24 66 -24 270 6 159 23 469 31 618 15 276 -28 540 -126 720 -267 246 -194
422 -471 594 -938 25 -66 56 -158 69 -205 14 -47 40 -130 58 -185 32 -96 50
-151 117 -370 17 -55 81 -257 144 -450 207 -638 347 -1087 400 -1280 15 -55
31 -109 36 -120 5 -11 13 -40 18 -65 6 -25 37 -135 70 -245 32 -110 67 -229
76 -265 18 -72 49 -179 101 -344 19 -59 34 -126 34 -147 0 -167 -184 -314
-470 -375 -210 -45 -331 11 -415 191 -57 120 -138 285 -153 310 -7 11 -50 99
-96 196 -46 97 -102 208 -124 245 -22 38 -117 223 -212 412 -193 385 -246 467
-364 561 -158 125 -315 147 -559 76 -173 -50 -192 -65 -167 -130 5 -14 12 -36
14 -48 5 -25 56 -198 156 -522 86 -278 150 -497 150 -511 0 -10 -132 -40 -156
-36 -18 4 -64 -16 -64 -28 0 -14 30 -12 60 3 53 28 68 27 110 -8 101 -85 186
-216 254 -393 50 -130 66 -199 65 -273 -2 -102 -9 -121 -46 -131 -18 -5 -33
-15 -33 -23 0 -8 -17 -31 -38 -52 -21 -21 -45 -57 -52 -82 -22 -70 -53 -95
-145 -115 l-80 -17 -42 48 c-69 78 -110 166 -128 273 -5 32 -44 171 -65 230
-4 14 -11 33 -14 42 -4 14 -11 15 -35 8 -28 -8 -31 -6 -42 28 -7 21 -20 53
-30 72 -11 19 -19 38 -19 42 0 4 -11 31 -24 60 -14 29 -41 92 -60 141 -20 48
-45 106 -55 130 -11 23 -39 89 -61 147 -23 58 -46 109 -51 115 -5 5 -9 19 -9
32 0 24 -7 28 -26 15 -10 -7 -1 -43 81 -337 7 -27 25 -88 39 -135 14 -47 26
-93 26 -102 0 -10 5 -18 11 -18 5 0 8 -3 6 -7 -6 -10 22 -132 62 -278 17 -60
31 -118 31 -127 0 -12 -13 -19 -47 -24 -27 -4 -41 -9 -33 -11 8 -2 26 -19 39
-39 14 -19 60 -74 102 -122 58 -64 91 -114 129 -189 28 -57 56 -103 62 -103 6
0 9 -3 5 -6 -3 -4 1 -13 9 -21 11 -11 12 -18 4 -29 -7 -7 -13 -37 -15 -66 -5
-85 -56 -181 -101 -192 -16 -4 -45 -22 -65 -39 -20 -18 -49 -40 -63 -50 -14
-9 -34 -37 -45 -61 -10 -25 -38 -65 -61 -90 -45 -49 -83 -65 -209 -87 -50 -9
-83 -21 -102 -37 -16 -13 -52 -30 -80 -37 -45 -12 -56 -12 -105 5 -91 32 -166
95 -201 170 -20 44 -20 43 -33 120 -6 36 -13 72 -17 80 -3 8 -7 78 -7 155 -2
121 1 145 17 175 24 43 33 50 75 50 42 0 130 49 110 61 -7 5 -39 9 -70 9 -47
0 -57 3 -57 18 -2 68 -5 92 -13 92 -4 0 -8 -6 -9 -12 0 -7 -3 -26 -5 -43 -3
-16 -5 -38 -5 -47 0 -10 -9 -23 -19 -28 -32 -17 -70 -75 -96 -146 -24 -68 -50
-231 -41 -265 6 -22 -15 -26 -32 -6 -13 16 -72 20 -106 7 -14 -5 -25 -6 -25
-1 0 5 19 12 42 16 l41 7 -31 14 c-18 7 -39 11 -46 8 -8 -3 -16 -1 -19 4 -4 4
-25 7 -49 6 -34 -2 -38 -1 -20 6 32 13 27 28 -9 24 -39 -5 -29 11 12 20 18 3
30 8 28 11 -3 2 -25 -1 -49 -6 -24 -6 -56 -7 -70 -4 -23 6 -24 8 -7 19 25 19
21 22 -23 18 -22 -2 -40 0 -40 6 0 5 -15 16 -32 23 -32 14 -38 15 -58 18 -5 0
-9 6 -7 12 1 6 -11 16 -28 22 -16 6 -36 19 -44 29 -10 16 -21 18 -55 14 -39
-5 -40 -5 -8 5 17 5 32 12 32 14 0 2 -15 2 -32 -1 -31 -6 -32 -6 -13 9 19 15
18 15 -17 12 -36 -3 -37 -2 -26 18 10 20 9 21 -5 9 -11 -10 -23 -10 -49 -3
-24 8 -26 10 -7 8 16 -2 26 1 26 10 0 15 -11 16 -55 4 -21 -7 -30 -6 -26 0 3
6 -3 13 -15 16 -26 7 -27 20 -3 26 9 2 2 2 -16 0 -25 -3 -32 -1 -26 8 4 7 3
10 -4 6 -13 -9 -44 2 -37 13 3 4 -1 8 -8 7 -6 0 -23 1 -37 2 -22 3 -20 5 15
17 l40 13 -45 -2 -45 -2 -78 195 c-157 394 -200 492 -224 508 -21 13 -31 13
-101 -3 -92 -21 -127 -37 -147 -69 -14 -22 -14 -30 4 -94 l19 -71 -26 -17
c-15 -10 -49 -19 -77 -20 -29 -1 -40 1 -27 5 43 12 16 39 -35 35 -13 -1 -23 3
-23 7 0 5 8 9 18 9 14 0 14 2 3 9 -9 6 -22 6 -32 0 -27 -14 -36 -10 -15 6 19
14 19 15 -8 15 -17 0 -25 4 -20 11 9 15 -14 29 -50 29 -24 0 -27 2 -16 15 13
16 4 20 -30 15 -8 -1 -12 1 -8 5 8 8 -22 45 -37 45 -6 0 -16 9 -23 20 -7 12
-18 18 -24 14 -8 -5 -9 -2 -5 10 6 14 3 16 -14 11 -25 -8 -57 14 -37 26 9 6 7
9 -8 9 -12 0 -30 11 -40 25 -10 14 -24 23 -31 21 -7 -3 -15 -1 -18 4 -4 6 -1
10 4 10 6 0 11 5 11 11 0 5 -4 7 -10 4 -5 -3 -10 -1 -10 5 0 7 -9 9 -22 5 -23
-7 -23 -7 -3 9 19 16 19 16 -10 10 -16 -3 -25 -2 -20 3 21 17 14 32 -13 30
-17 -1 -26 3 -25 11 2 6 -3 12 -10 12 -6 0 -4 5 6 11 28 16 20 30 -18 27 -19
-1 -37 1 -41 5 -4 4 2 7 14 7 12 0 22 4 22 10 0 5 -8 6 -17 3 -12 -5 -15 -2
-10 10 5 14 0 17 -23 17 -23 0 -28 3 -23 17 4 10 2 14 -5 9 -6 -3 -13 -2 -17
3 -3 6 -12 8 -21 4 -8 -3 -14 -2 -13 3 4 22 -4 32 -48 64 -47 33 -47 34 -23
41 19 5 14 7 -24 8 -38 1 -47 4 -42 16 5 15 -48 62 -65 58 -5 -2 -9 4 -9 12 0
14 -12 20 -34 16 -5 -1 -17 6 -28 16 -20 18 -20 18 4 24 17 5 12 7 -21 8 -34
1 -42 4 -37 16 4 10 -1 15 -16 15 -21 0 -21 0 -2 15 17 14 15 15 -29 9 -44 -6
-48 -5 -45 12 2 10 -3 19 -10 19 -7 0 -25 11 -39 25 -22 21 -23 26 -10 28 34
7 15 17 -24 14 -30 -3 -40 -1 -39 9 5 34 -1 49 -20 49 -12 0 -20 -7 -20 -16 0
-14 2 -15 17 -3 15 13 15 12 1 -11 -9 -14 -16 -38 -16 -53 1 -46 -14 -53 -332
-164 -102 -35 -200 -64 -217 -65 -53 -2 -70 22 -83 120 -6 48 -20 141 -31 207
-10 66 -19 123 -19 128 0 4 -22 7 -50 7 -27 0 -50 3 -50 8 0 4 -20 6 -45 4
l-45 -4 0 -56 c0 -51 8 -130 41 -394 7 -61 7 -92 0 -106 -6 -11 -48 -35 -94
-55 -91 -38 -417 -147 -440 -147 -33 0 -49 39 -68 167 -54 362 -99 693 -102
730 -1 24 -6 43 -10 43 -5 0 -33 -7 -63 -16 -49 -14 -57 -14 -78 -1 -20 14
-25 31 -40 139 -9 68 -16 142 -16 165 0 49 11 59 100 93 l55 21 -3 39 c-6 61
16 168 49 237 36 76 132 174 218 223 135 77 128 72 106 81 -19 7 -19 8 3 8 12
1 22 5 22 10 0 4 -11 7 -26 5 -22 -2 -23 0 -12 14 8 10 9 13 1 9 -7 -4 -18 2
-27 14 -14 21 -17 21 -101 9 -47 -7 -88 -10 -91 -8 -2 3 26 13 63 22 37 9 72
21 78 28 7 8 6 9 -3 4 -7 -4 -12 -1 -12 8 0 10 -6 13 -15 9 -9 -3 -15 -2 -14
3 4 15 -13 44 -22 39 -4 -3 -13 4 -19 15 -6 11 -15 18 -19 15 -5 -3 -12 7 -15
21 -5 19 -11 24 -24 19 -9 -3 -13 -3 -10 0 4 4 -12 26 -35 48 -23 23 -41 45
-40 49 2 4 -6 8 -18 8 -11 0 -18 4 -15 8 3 5 -12 17 -32 27 -20 10 -31 20 -24
22 6 3 12 9 12 14 0 4 -7 6 -15 3 -10 -4 -15 0 -15 14 0 13 -6 19 -17 18 -12
-1 -17 5 -15 17 6 36 -56 -11 -205 -156 -157 -153 -344 -382 -326 -400 2 -3
-5 -11 -17 -17 -22 -12 -22 -11 -15 16 4 16 9 43 11 59 10 86 20 118 61 200
238 477 720 880 1352 1130 160 63 766 268 1286 435 433 139 501 156 490 128
-3 -7 -6 -69 -8 -138 -2 -69 -7 -132 -12 -139 -26 -43 31 -399 105 -656 5 -16
18 -66 30 -110 29 -112 70 -234 81 -241 5 -3 7 -9 5 -13 -10 -16 22 -86 42
-89 16 -2 42 -38 42 -57 0 -11 -29 -4 -33 8 -3 6 -4 -13 -2 -44 l3 -56 -52
-18 c-99 -35 -190 -89 -252 -150 -104 -103 -144 -222 -144 -427 0 -62 1 -122
3 -133 3 -11 8 -47 12 -80 24 -199 125 -364 265 -433 49 -24 66 -27 150 -26
92 1 101 3 329 83 335 118 354 130 392 237 18 50 20 72 14 143 -3 47 -8 88
-10 92 -7 10 -9 129 -3 135 3 2 36 -3 74 -13 52 -13 118 -17 274 -18 237 -2
250 -5 343 -98 81 -80 107 -97 148 -97 46 0 53 15 30 66 -42 93 -124 185 -185
208 -60 23 -166 35 -266 30 -164 -9 -333 -4 -404 12 -39 8 -97 19 -130 24 -68
10 -111 37 -188 118 -50 53 -133 150 -168 196 -8 11 -27 33 -42 49 -16 16 -28
34 -28 41 0 6 -6 21 -14 32 -20 27 -106 196 -106 206 0 5 -9 27 -19 51 -17 37
-76 222 -86 268 -2 9 -15 63 -29 120 -42 176 -57 242 -61 284 -2 22 -8 61 -14
85 -27 128 -31 440 -7 579 16 90 59 241 94 326 10 24 54 78 107 131 77 78 105
98 186 138 104 50 248 91 371 105 75 8 178 4 393 -18 134 -14 130 -14 115 4
-9 10 -9 15 -1 15 6 0 11 4 11 9 0 5 -10 7 -22 5 -17 -4 -15 -1 6 8 l29 14
-39 12 c-21 6 -73 17 -114 23 -41 7 -79 16 -83 20 -13 11 80 77 168 119 79 38
300 100 356 100 16 0 29 5 29 10 0 6 -5 9 -11 8 -6 -2 -14 3 -17 11 -2 8 0 11
6 8 5 -4 16 1 23 10 12 14 11 15 -11 8 -28 -8 -22 2 12 21 32 17 38 17 126 -7z
m-1377 -2919 c18 -22 65 -65 106 -95 40 -31 73 -57 73 -59 0 -2 7 -39 15 -82
29 -161 45 -315 34 -336 -20 -38 -293 -138 -376 -138 -39 0 -50 5 -79 36 -55
58 -95 223 -97 394 0 84 3 102 27 153 15 31 43 69 61 83 37 28 160 83 187 84
9 0 32 -18 49 -40z m-2874 -6 c-3 -3 -12 -4 -19 -1 -8 3 -5 6 6 6 11 1 17 -2
13 -5z m-743 -994 c-7 -41 -14 -104 -14 -140 -1 -48 -4 -59 -10 -43 -10 25 3
177 20 229 18 53 19 37 4 -46z m3546 -1445 c0 -7 -93 -46 -98 -40 -3 2 15 13
39 24 46 20 59 24 59 16z m3018 -500 c9 -7 -56 -38 -82 -39 -45 -2 -48 30 -4
42 27 8 74 6 86 -3z m-3217 -51 c24 -20 53 -50 64 -67 61 -91 78 -120 125
-206 61 -112 97 -204 106 -271 6 -46 5 -50 -14 -50 -13 0 -28 11 -38 28 -58
95 -133 198 -179 243 -56 55 -77 67 -135 78 l-35 6 -7 110 c-7 120 1 150 44
158 13 2 24 5 25 6 0 0 21 -15 44 -35z m-15 -476 c39 -59 87 -142 105 -185 30
-68 34 -88 34 -163 0 -139 -39 -181 -114 -126 -32 24 -89 101 -105 142 -17 42
-43 209 -45 285 -1 45 -6 92 -11 105 -7 17 -5 28 7 39 31 31 54 13 129 -97z
m-919 -104 c26 -8 59 -28 73 -43 21 -24 33 -28 80 -28 30 0 94 -2 141 -4 78
-4 89 -7 120 -34 42 -37 135 -142 152 -172 7 -12 26 -45 44 -75 57 -96 76
-156 76 -238 0 -88 -29 -160 -64 -160 -11 0 -34 -16 -52 -36 -60 -68 -68 -75
-97 -81 -22 -4 -30 -11 -30 -27 0 -31 -53 -118 -94 -154 -35 -30 -110 -61
-122 -49 -3 3 -1 14 4 24 17 30 25 110 13 117 -6 4 -11 3 -11 -2 0 -5 -11 -7
-25 -4 -16 3 -25 0 -25 -8 0 -8 -9 -11 -25 -8 -21 4 -26 1 -31 -21 -42 -189
-149 -238 -283 -131 -65 53 -99 116 -121 229 -20 101 -30 317 -15 341 4 6 0
19 -9 29 -47 52 61 104 178 87 26 -4 44 -11 41 -17 -4 -5 -2 -9 4 -9 6 0 27
-11 47 -25 20 -14 34 -25 31 -25 -3 0 4 -11 17 -25 18 -19 29 -23 45 -17 20 7
20 9 -17 53 -20 25 -55 61 -77 80 -22 19 -46 40 -53 46 -7 7 -31 18 -53 25
-23 6 -43 18 -46 25 -3 7 -1 46 4 87 5 46 5 79 -1 89 -24 37 46 160 97 170 12
2 25 5 29 6 4 0 29 -6 55 -15z"/>
<path d="M2374 6151 c-116 -41 -200 -80 -173 -81 14 0 18 -22 28 -127 13 -130
58 -496 66 -523 2 -8 7 -40 10 -70 3 -30 15 -120 25 -200 10 -80 26 -215 35
-300 8 -85 22 -204 30 -263 8 -60 13 -113 9 -118 -9 -15 9 -11 128 30 158 54
198 74 188 91 -7 13 -19 106 -35 256 -3 28 -7 60 -9 71 -3 11 -7 44 -11 74 -3
30 -14 115 -25 189 -10 74 -22 167 -25 205 -4 39 -11 75 -15 80 -4 6 -10 21
-13 33 -5 21 1 27 41 45 88 38 277 98 329 104 132 14 154 -31 204 -421 47
-367 57 -475 45 -481 -37 -17 76 14 164 45 134 48 161 61 154 72 -6 10 -9 31
-74 513 -22 171 -46 326 -52 345 -20 65 -62 120 -121 160 -72 49 -118 62 -216
61 -83 0 -130 -12 -339 -85 -179 -62 -177 -62 -177 17 0 34 -6 105 -13 157 -7
52 -14 110 -15 127 -1 22 -7 33 -17 33 -8 0 -65 -18 -126 -39z"/>
<path d="M1935 6009 c-167 -56 -272 -114 -350 -193 -56 -57 -76 -85 -98 -141
-33 -82 -51 -185 -37 -199 6 -6 10 -21 10 -34 0 -19 -11 -28 -57 -48 -71 -30
-165 -77 -140 -69 12 3 17 1 14 -7 -2 -7 -1 -23 4 -34 4 -12 10 -60 14 -108 5
-65 4 -86 -6 -86 -7 0 -10 -2 -8 -4 2 -3 52 8 109 25 58 16 106 29 108 29 6 0
1 -50 -6 -54 -5 -3 -5 -31 -1 -63 4 -32 11 -87 14 -122 3 -35 17 -151 30 -259
14 -107 23 -197 21 -199 -2 -3 0 -18 4 -35 5 -16 12 -62 15 -101 3 -40 8 -84
11 -98 4 -19 0 -28 -12 -33 -9 -4 -15 -9 -12 -11 6 -6 224 64 296 95 37 16 52
28 52 42 0 11 -12 104 -26 206 -14 103 -27 207 -30 232 -3 25 -9 67 -15 95
-11 56 -37 251 -41 307 -2 21 -9 40 -15 43 -7 2 -13 13 -13 24 0 25 38 45 180
96 124 44 166 65 153 74 -5 3 -10 25 -12 49 -1 23 -5 72 -10 107 -5 43 -4 68
3 76 17 17 -37 3 -186 -47 -167 -57 -166 -57 -158 4 12 97 48 129 233 207 61
26 85 41 78 49 -11 14 -29 126 -27 177 1 22 1 39 1 39 0 0 -40 -14 -90 -31z"/>
<path d="M1950 5675 c-13 -14 -21 -25 -17 -25 13 0 57 24 57 31 0 19 -19 16
-40 -6z"/>
<path d="M7043 3912 c-20 -2 -37 -11 -43 -23 -10 -17 -7 -19 25 -19 38 0 75
15 75 29 0 12 -20 17 -57 13z"/>
<path d="M6176 3605 c-48 -13 -89 -43 -108 -79 -5 -10 -6 -17 -1 -14 40 19 65
28 108 37 66 15 157 40 162 45 7 6 -67 26 -92 25 -11 0 -42 -7 -69 -14z"/>
<path d="M6479 3540 c-66 -11 -94 -27 -78 -46 17 -20 95 -18 169 6 34 11 70
20 79 21 9 0 3 7 -14 14 -33 15 -85 17 -156 5z"/>
<path d="M5495 2860 c-13 -6 -15 -9 -5 -9 8 0 22 4 30 9 18 12 2 12 -25 0z"/>
<path d="M3160 1869 c0 -5 -4 -7 -10 -4 -5 3 -10 1 -10 -4 0 -14 17 -14 25 -1
4 6 10 8 15 5 5 -3 11 -1 15 5 3 5 -3 10 -14 10 -12 0 -21 -5 -21 -11z"/>
<path d="M3290 1679 c0 -5 5 -7 10 -4 6 3 10 8 10 11 0 2 -4 4 -10 4 -5 0 -10
-5 -10 -11z"/>
<path d="M3238 1663 c7 -3 16 -2 19 1 4 3 -2 6 -13 5 -11 0 -14 -3 -6 -6z"/>
<path d="M3180 1650 c-18 -12 -2 -12 25 0 13 6 15 9 5 9 -8 0 -22 -4 -30 -9z"/>
<path d="M3538 1648 c5 -5 16 -8 23 -6 8 3 3 7 -10 11 -17 4 -21 3 -13 -5z"/>
</g>
</svg>
